<?xml version="1.0" encoding="UTF-8" standalone="no"?> <svg xmlns="http://www.w3.org/2000/svg" viewBox="0 0 512 512"><g id="outline"><path d="M101.6,222.693a70.084,70.084,0,0,0,78.07,2.006l2.813-1.777a8,8,0,0,0-8.541-13.529l-2.814,1.777a54.133,54.133,0,0,1-60.3-1.548,8,8,0,1,0-9.226,13.071Z"/><path d="M333.6,222.693a70.086,70.086,0,0,0,78.073,2l2.812-1.777a8,8,0,0,0-8.545-13.527l-2.811,1.776a54.133,54.133,0,0,1-60.3-1.548,8,8,0,1,0-9.226,13.071Z"/><path d="M495.459,215.672a59.708,59.708,0,0,0-104.767-34.989,24.407,24.407,0,0,1-36.951,0,59.668,59.668,0,0,0-97.524,10.344,59.668,59.668,0,0,0-97.525-10.343,24.408,24.408,0,0,1-36.952,0A59.707,59.707,0,0,0,16.975,215.673C16.32,225.348,16,246.771,16,248l0,239.193a8,8,0,0,0,8,8H488a8,8,0,0,0,8-8V248C496,247.107,496.133,225.637,495.459,215.672Zm-230.521,1.079a43.708,43.708,0,0,1,76.692-25.613,40.407,40.407,0,0,0,61.174,0A43.708,43.708,0,0,1,479.5,216.751a219.1,219.1,0,0,1-11.528,86.409H416.037l-.039,0-.039,0H336.037l-.039,0-.039,0H276.467A219.121,219.121,0,0,1,264.938,216.751Zm124.9,186.7L363.265,410.1l-1.2-7.207,29.08-7.27Zm-2.868,17.21-1.749,10.5H366.775l-.871-5.23Zm-28.746-40.813,37.094-9.274-1.306,7.834-34.587,8.647Zm39.962-26.484-42.6,10.651-2.143-12.857h45.112ZM408,335.158H344v-16h64ZM32.938,216.751a43.706,43.706,0,0,1,76.691-25.612,40.409,40.409,0,0,0,61.175,0A43.707,43.707,0,0,1,247.5,216.751,220.15,220.15,0,0,1,217.9,343a269.682,269.682,0,0,0-30.355,77.486l-4.045,18.2a9.756,9.756,0,0,1-19.28-2.117V374.327a24,24,0,1,0-48,0V436.57a9.756,9.756,0,0,1-19.28,2.117l-4.046-18.2A269.678,269.678,0,0,0,62.535,343,220.155,220.155,0,0,1,32.938,216.751ZM32,479.193l0-163.021a238.014,238.014,0,0,0,16.716,34.887,253.708,253.708,0,0,1,28.555,72.9l4.046,18.2a25.757,25.757,0,0,0,50.9-5.587V374.327a8,8,0,0,1,16,0V436.57a25.756,25.756,0,0,0,50.9,5.588l4.045-18.2a253.741,253.741,0,0,1,28.557-72.895,236.955,236.955,0,0,0,24.576-59.35q2.967,11.2,7.032,22.23a8,8,0,0,0,7.5,5.221H328v24a8,8,0,0,0,8,8h1.223l2.84,17.043a7.993,7.993,0,0,0,2.47,14.818l1.321,7.929-1.794.448a8,8,0,1,0,3.88,15.523l.553-.138,1.2,7.207-5.634,1.409a8,8,0,1,0,3.88,15.522l4.393-1.1,1.775,10.653A8,8,0,0,0,360,447.158h32a8,8,0,0,0,7.892-6.684l4.007-24.045,6.041-1.51a8,8,0,0,0-3.179-15.66l1.312-7.873,1.867-.467a8,8,0,0,0,.759-15.291l1.624-9.745a7.982,7.982,0,0,0,1.948-11.685l.506-3.04H416a8,8,0,0,0,8-8v-24h49.608A7.993,7.993,0,0,0,480,315.953v163.24Z"/><rect x="247.998" y="359.158" width="16" height="16"/><rect x="55.998" y="439.158" width="16" height="16"/><rect x="127.998" y="303.158" width="16" height="16"/><rect x="175.998" y="319.158" width="16" height="16"/><rect x="87.998" y="335.158" width="16" height="16"/><rect x="295.998" y="335.158" width="16" height="16"/><rect x="295.998" y="383.158" width="16" height="16"/><rect x="247.998" y="415.158" width="16" height="16"/><rect x="295.998" y="431.158" width="16" height="16"/><rect x="439.998" y="335.158" width="16" height="16"/><rect x="439.998" y="383.158" width="16" height="16"/><rect x="439.998" y="431.158" width="16" height="16"/><rect x="423.998" y="127.992" width="16" height="16"/><rect x="423.998" y="95.992" width="16" height="16"/><rect x="407.998" y="111.992" width="16" height="16"/><rect x="439.998" y="111.992" width="16" height="16"/><rect x="319.998" y="87.992" width="16" height="16"/><rect x="319.998" y="39.992" width="16" height="16"/><rect x="295.998" y="63.992" width="16" height="16"/><rect x="343.998" y="63.992" width="16" height="16"/></g></svg>
