<?xml version="1.0" encoding="UTF-8" standalone="no"?> <svg id="line" xmlns="http://www.w3.org/2000/svg" viewBox="0 0 64 64"><path d="M46,25V19.535l3.381-2.254a4.706,4.706,0,0,0-.144-7.925L40.451,3.95A13.13,13.13,0,0,0,33.563,2H30.437a13.13,13.13,0,0,0-6.888,1.95L14.762,9.356a4.707,4.707,0,0,0-.143,7.925L18,19.535V25a14.011,14.011,0,0,0,9,13.061V40H21.963A7.972,7.972,0,0,0,14,47.963V61a1,1,0,0,0,1,1H49a1,1,0,0,0,1-1V47.963A7.972,7.972,0,0,0,42.037,40H37V38.061A14.011,14.011,0,0,0,46,25ZM18,16v1.131l-2.272-1.514a2.707,2.707,0,0,1,.083-4.557L24.6,5.653A11.14,11.14,0,0,1,30.437,4h3.126A11.14,11.14,0,0,1,39.4,5.653l8.786,5.407a2.707,2.707,0,0,1,.083,4.557L46,17.131V16a1,1,0,0,0-1-1H19A1,1,0,0,0,18,16Zm24.816,1A3,3,0,0,1,40,19H24a3,3,0,0,1-2.816-2ZM27.52,42l2.926,3.659-3.629,1.815L26.133,42ZM29,40.65V38.668a13.72,13.72,0,0,0,6,0V40.65L32,44.4ZM31.959,52a14.813,14.813,0,0,0-4.088.587l-1.666-2.637a.992.992,0,0,0,.242-.057l3.126-1.563Zm-10-10h2.154l.724,5.792-3.625-5.74A5.93,5.93,0,0,1,21.963,42ZM16,47.963a5.964,5.964,0,0,1,3.237-5.3l6.711,10.625a15.185,15.185,0,0,0-1.511.78,3.969,3.969,0,0,0-1.13-2.413l-1.415-1.414a1,1,0,0,0-1.414,0l-4.243,4.243A1,1,0,0,0,16,54.9ZM18.741,60H16V55.483a1,1,0,0,0,.235.418l1.415,1.414a3.969,3.969,0,0,0,2.063,1.1A14.94,14.94,0,0,0,18.741,60Zm.323-4.1-.707-.707,2.828-2.829.708.707a2,2,0,0,1,0,2.829A2.048,2.048,0,0,1,19.064,55.9ZM26.345,60a8.876,8.876,0,0,1,2.862-1.55L30.185,60Zm6.206,0-1.238-1.961c.228-.017.455-.039.687-.039a8.941,8.941,0,0,1,4.734,1.348l.423.652Zm7.912,0a10.953,10.953,0,0,0-16.926,0H21.052a12.988,12.988,0,0,1,21.9,0ZM48,60H47a2,2,0,0,1,0-4h1ZM38.472,49.882a1,1,0,0,0,.52-.758L39.883,42h2.154A5.97,5.97,0,0,1,48,47.963V54H47a4,4,0,0,0-3.851,2.977,15.126,15.126,0,0,0-8.664-4.759l-3.112-4.786L32,47.118,37.553,49.9a1,1,0,0,0,.919-.013ZM37.867,42l-.684,5.474-3.629-1.815L36.48,42ZM32,37A12.013,12.013,0,0,1,20,25V18.969A4.982,4.982,0,0,0,24,21H40a4.982,4.982,0,0,0,4-2.031V25A12.013,12.013,0,0,1,32,37Z"/></svg>
