<svg xmlns="http://www.w3.org/2000/svg" width="640" height="162" viewBox="0 0 640 162">
  <g id="Group_39" data-name="Group 39" transform="translate(-1298 -201)">
    <text id="MANGO" transform="translate(1477 201)" fill="#08026d" font-size="106" font-family="Inter-SemiBold, Inter" font-weight="600"><tspan x="0" y="103">MANGO</tspan></text>
    <text id="Find_any_expert" data-name="Find any expert" transform="translate(1595 347)" fill="#08026d" font-size="39" font-family="Inter-Regular, Inter"><tspan x="0" y="0">Find any expert</tspan></text>
    <g id="Target" transform="translate(1296.001 207.94)">
      <path id="Path_66" data-name="Path 66" d="M39.664,20.953a5.466,5.466,0,1,0-1.52-10.823,32.8,32.8,0,1,0,37.11,37.11,5.466,5.466,0,0,0-10.823-1.52A21.865,21.865,0,1,1,39.664,20.953Z" transform="translate(35.691 35.996)" fill="#4f46e5"/>
      <path id="Path_67" data-name="Path 67" d="M81.515,15.839A5.466,5.466,0,0,0,78.154,8.87,53.569,53.569,0,0,0,60.662,6a54.662,54.662,0,1,0,54.662,54.662,53.569,53.569,0,0,0-2.87-17.492,5.467,5.467,0,1,0-10.337,3.564,42.538,42.538,0,0,1,2.274,13.928,43.73,43.73,0,1,1-43.73-43.729,42.538,42.538,0,0,1,13.906,2.274,5.466,5.466,0,0,0,6.948-3.367Z" transform="translate(17.869 17.878)" fill="#4f46e5"/>
      <path id="Path_68" data-name="Path 68" d="M151.7,56.128a5.466,5.466,0,0,0-10.8,1.246,5.368,5.368,0,0,0,.246,1.613,66.331,66.331,0,0,1,2.979,19.553A65.594,65.594,0,1,1,78.531,12.946a66.332,66.332,0,0,1,19.542,2.979,5.368,5.368,0,0,0,1.64.246h.055a5.466,5.466,0,0,0,1.416-10.736A76.527,76.527,0,1,0,151.7,56.128Z" transform="translate(0 0)" fill="#4f46e5"/>
      <path id="Path_69" data-name="Path 69" d="M16.6,73.093a5.466,5.466,0,1,0,7.73,7.73L61.4,43.751a10.714,10.714,0,0,0,2.793.41h8.669a10.856,10.856,0,0,0,7.729-3.2l12.113-12.1a8.2,8.2,0,0,0-2.126-13.119l-5.914-2.952L81.715,6.876A8.2,8.2,0,0,0,68.6,4.744L56.466,16.83a10.856,10.856,0,0,0-3.2,7.729v8.669a10.713,10.713,0,0,0,.41,2.793ZM64.2,24.559l9.435-9.435L75.7,19.273a5.466,5.466,0,0,0,2.449,2.449L82.3,23.794l-9.435,9.435H64.2Z" transform="translate(58.065 1.582)" fill="#f6cb1f"/>
    </g>
  </g>
</svg>
